<svg xmlns="http://www.w3.org/2000/svg" viewBox="0 0 1251.75 204.79"><defs><style>.cls-1{fill:#fff;}</style></defs><g id="Layer_2" data-name="Layer 2"><g id="Layer_5" data-name="Layer 5"><path class="cls-1" d="M445.36,133.66l54.22-129h81.33V10h-6.48q-8.83,0-14.14,3a14.18,14.18,0,0,0-5.9,6.78q-1.62,3.47-1.62,18.05v129q0,15,1.62,18.77T561,192.2q5,2.81,13.41,2.81h6.48v5.34H476.6V195h6.48q8.84,0,14.14-3a14.13,14.13,0,0,0,5.9-6.93q1.62-3.47,1.62-18.19V21.8L428.12,200.35h-3.53L346.79,23.09V161q0,14.43.74,17.75a20.6,20.6,0,0,0,8.32,11.77Q362.26,195,376,195v5.34H307.6V195h2.06A31.84,31.84,0,0,0,322,192.92a19.88,19.88,0,0,0,8.69-6,27.14,27.14,0,0,0,4.57-10.54q.29-1.59.29-14.72V37.82q0-14.87-1.62-18.55t-6.63-6.5q-5-2.8-13.4-2.81H307.6V4.62h81.63Z"/><path class="cls-1" d="M713.22,128H637.64q1.32,26.85,14.59,42.44,10.15,12,24.45,12a28.23,28.23,0,0,0,16.06-4.83q7.23-4.85,15.47-17.4l5,3.18Q702,185.78,688.47,195.08t-31.38,9.31q-30.65,0-46.41-23.09Q598,162.67,598,135.11q0-33.78,18.64-53.77t43.69-20q20.92,0,36.32,16.81T713.22,128ZM677,118.36q0-23.23-2.58-31.9t-8-13.13a12.41,12.41,0,0,0-8.25-2.6q-7.67,0-12.52,7.36-8.7,12.85-8.7,35.22v5Z"/><path class="cls-1" d="M864.39,4.62V159.93q0,15.75.89,18.63a11.59,11.59,0,0,0,4.49,7.07q3.32,2.31,11.57,2.89v4.76l-58.2,11.11V183q-10.47,12.42-18.64,16.89A37.92,37.92,0,0,1,786,204.39q-26.38,0-41.7-23.09-12.37-18.77-12.37-46.05,0-21.79,7.66-39t21-26.06a51,51,0,0,1,28.66-8.8,39.35,39.35,0,0,1,17.53,3.75q7.66,3.75,16.36,13.14V37.53q0-15.45-1.33-18.62a12.46,12.46,0,0,0-5.3-6.21q-3.54-2-13.26-2V4.62ZM823.14,96.13q-10.9-20.49-26.67-20.49a13.79,13.79,0,0,0-9,2.88Q782,83,778.57,94.26t-3.46,34.5q0,25.55,3.83,37.82t10.46,17.75q3.39,2.74,9.28,2.74,13,0,24.46-19.92Z"/><path class="cls-1" d="M952.06,65.39v107q0,14.29,3.39,18.26t13.26,4.55v5.19H894.3v-5.19q9.13-.3,13.56-5.2,2.94-3.32,2.95-17.61V93.54q0-14.3-3.39-18.26T894.3,70.73V65.39ZM931.43,0a22.15,22.15,0,0,1,16.21,6.57,21.45,21.45,0,0,1,6.63,15.8,21.1,21.1,0,0,1-6.7,15.74,22.36,22.36,0,0,1-16.14,6.49,22.11,22.11,0,0,1-16.06-6.49,21.22,21.22,0,0,1-6.63-15.74,21.45,21.45,0,0,1,6.63-15.8A22,22,0,0,1,931.43,0Z"/><path class="cls-1" d="M1094.54,165.56l4.57,3.47q-9.73,17.9-24.24,26.63a58.94,58.94,0,0,1-30.87,8.73q-27.55,0-44-20.35t-16.51-48.93q0-27.57,15-48.5,18.12-25.26,50-25.26,21.36,0,34,10.53T1095,95.41q0,8.24-5.08,13.14t-13.34,4.91a19.55,19.55,0,0,1-14.36-5.63q-5.68-5.64-7-20.07-.89-9.09-4.28-12.7a10.56,10.56,0,0,0-8-3.61q-7.08,0-12.08,7.36-7.67,11.11-7.66,34.07a108.09,108.09,0,0,0,6.18,36.45q6.19,17.38,16.95,25.91a30.55,30.55,0,0,0,19.15,6.2,29.57,29.57,0,0,0,13.7-3.32Q1085.71,174.81,1094.54,165.56Z"/><path class="cls-1" d="M1192.08,180.43q-25.2,21.8-45.24,21.8-11.79,0-19.59-7.58a25.34,25.34,0,0,1-7.81-19q0-15.45,13.55-27.79T1192.08,115V101.48q0-15.3-1.7-19.28a15.66,15.66,0,0,0-6.41-6.92,19.48,19.48,0,0,0-10.61-3q-9.57,0-15.76,4.18c-2.56,1.74-3.83,3.76-3.83,6.07q0,3,4.12,7.5,5.59,6.21,5.6,12a15.84,15.84,0,0,1-5.38,12.06q-5.37,5-14.07,5a22.7,22.7,0,0,1-15.54-5.48q-6.27-5.49-6.26-12.85,0-10.4,8.4-19.84t23.42-14.51a97.32,97.32,0,0,1,31.24-5.05q19.59,0,31,8.15t14.81,17.69q2.07,6.06,2.06,27.85v52.4q0,9.24.74,11.62a7,7,0,0,0,2.21,3.54,5.33,5.33,0,0,0,3.39,1.15q3.82,0,7.81-5.34l4.42,3.47q-7.38,10.68-15.25,15.51a33.52,33.52,0,0,1-17.9,4.84q-11.79,0-18.42-5.41T1192.08,180.43Zm0-10.53V124.72q-17.83,10.25-26.53,21.94-5.74,7.78-5.74,15.73a16.35,16.35,0,0,0,4.86,11.69q3.67,3.9,10.31,3.9Q1182.35,178,1192.08,169.9Z"/></g><g id="Layer_7" data-name="Layer 7"><path class="cls-1" d="M199.42,84.37h0a15.81,15.81,0,0,0-15.81-15.81H167.68a15.82,15.82,0,0,1-15.82-15.82V36.82A15.81,15.81,0,0,0,136.05,21h0a15.82,15.82,0,0,0-15.82,15.82V52.74a15.81,15.81,0,0,1-15.81,15.82H88.49A15.81,15.81,0,0,0,72.68,84.37h0a15.81,15.81,0,0,0,15.81,15.82h15.93A15.81,15.81,0,0,1,120.23,116v15.92a15.82,15.82,0,0,0,15.82,15.82h0a15.81,15.81,0,0,0,15.81-15.82V116a15.82,15.82,0,0,1,15.82-15.82h15.93A15.81,15.81,0,0,0,199.42,84.37Z"/><path class="cls-1" d="M.53,90.11c12.63-4.2,42.06,38.84,61.79,47.42,14.88,6.46,35.26.73,29.64-5.69-40.73-46.46,7.13-5.13,9.46-3.06a76,76,0,0,1,24,72.12A76,76,0,0,1,51,185.65C29.94,167-4.71,115.83.53,90.11Z"/><path class="cls-1" d="M270,90.11c-12.63-4.2-42.06,38.84-61.79,47.42-14.88,6.46-35.26.73-29.64-5.69,40.72-46.46-7.13-5.13-9.46-3.06A76,76,0,0,0,145,200.9a76,76,0,0,0,74.48-15.25C240.56,167,275.21,115.83,270,90.11Z"/><path class="cls-1" d="M181.8,18.64a46.42,46.42,0,0,0-22.33,39.11l53.3-36L173.56,53.51l-9.9,7.85a46.34,46.34,0,0,0,42.23-3C220.58,49.43,247,22.48,246.68,6.45,232.61-1.26,196.5,9.73,181.8,18.64Z"/><path class="cls-1" d="M106.94,53.6,80.5,32.18,114.14,54.9a31.27,31.27,0,0,0-15-24.81c-9.91-6-34.26-13.42-43.74-8.23-.22,10.81,17.6,29,27.5,35a31.29,31.29,0,0,0,29.9,1.39Z"/></g></g></svg>